# xmcd
#
# Track frame offsets:
# 150
# 16095
# 38420
# 62621
# 79682
# 99954
# 115993
# 146460
# 163352
#
# Disc length: 2726 seconds
#
#
# Revision: 0
# Processed by: cddbd v1.5PL3 Copyright (c) Steve Scherf et al.
# Submitted via: FreeRIP 2.00 
#
DISCID=650aa409
DTITLE=Little G. Weevil - One - CD2
DYEAR=2004
DGENRE=Blues
TTITLE0=Gate Walks To Board
TTITLE1=Can't Be Satisfied
TTITLE2=Ain't Nobody's Business
TTITLE3=So Mean To Me
TTITLE4=You Don't Know What Love Is
TTITLE5=Give Me My Blues
TTITLE6=When You Got A Good Friend
TTITLE7=Tell Me What's The Reason
TTITLE8=Sally Mae
EXTD=Little G. Weevil and the Pure Blues
EXTT0=
EXTT1=
EXTT2=
EXTT3=
EXTT4=
EXTT5=
EXTT6=
EXTT7=
EXTT8=
PLAYORDER=
